<?xml version="1.0" standalone="no"?>
<!DOCTYPE svg PUBLIC "-//W3C//DTD SVG 20010904//EN"
 "http://www.w3.org/TR/2001/REC-SVG-20010904/DTD/svg10.dtd">
<svg version="1.0" xmlns="http://www.w3.org/2000/svg"
 width="512.000000pt" height="218.000000pt" viewBox="0 0 512.000000 218.000000"
 preserveAspectRatio="xMidYMid meet">

<g transform="translate(0.000000,218.000000) scale(0.100000,-0.100000)"
fill="#000000" stroke="none">
<path d="M0 1090 l0 -1090 2560 0 2560 0 0 1090 0 1090 -2560 0 -2560 0 0
-1090z m2020 238 c0 -162 1 -170 18 -156 36 32 82 48 140 48 47 0 67 -6 104
-29 66 -42 73 -69 73 -286 l0 -180 -81 -3 -82 -3 -3 154 c-5 180 -14 207 -75
207 -80 0 -94 -33 -94 -227 l0 -133 -85 0 -85 0 0 383 c0 211 3 387 7 390 3 4
42 7 85 7 l78 0 0 -172z m-1043 -223 c68 -187 126 -350 129 -362 6 -23 5 -23
-93 -23 l-98 0 -74 223 c-41 122 -78 233 -84 247 -8 22 -20 -8 -92 -220 l-82
-245 -101 -3 c-56 -1 -102 -1 -102 2 0 4 238 666 255 709 7 16 19 17 113 15
l106 -3 123 -340z m1922 106 c112 -42 174 -129 173 -244 0 -156 -112 -260
-282 -260 -157 -1 -266 89 -286 236 -27 192 197 344 395 268z m1642 9 c91 -25
154 -111 166 -224 l6 -56 -177 0 -176 0 0 -29 c0 -43 43 -81 92 -81 49 0 76
14 88 46 9 23 14 24 90 24 91 0 94 -4 61 -76 -35 -76 -118 -118 -231 -117
-120 2 -201 47 -245 138 -22 45 -27 68 -27 126 1 120 58 207 160 244 44 16
143 19 193 5z m-918 -14 c18 -7 45 -27 59 -44 l26 -31 46 46 46 45 68 -4 c50
-2 76 -9 100 -26 61 -44 66 -66 70 -279 l4 -193 -85 0 -85 0 -4 160 c-3 143
-6 162 -23 179 -32 31 -75 31 -105 1 -18 -18 -20 -33 -20 -180 l0 -160 -84 0
-85 0 -3 165 c-3 187 -8 199 -75 197 -67 -2 -73 -20 -73 -203 l0 -159 -85 0
-85 0 0 245 0 245 85 0 85 0 0 -27 c0 -23 2 -25 13 -11 39 48 138 65 210 34z
m-1940 -38 c-14 -24 -64 -101 -110 -171 -45 -70 -83 -130 -83 -133 0 -2 45 -4
100 -4 l100 0 0 -70 0 -70 -241 0 c-190 0 -240 3 -236 13 2 7 50 83 106 170
55 86 101 159 101 162 0 2 -42 6 -92 7 l-93 3 -3 68 -3 67 241 0 240 0 -27
-42z m-904 -229 c33 -11 61 -52 61 -88 0 -56 -62 -108 -114 -95 -87 22 -95
150 -11 185 27 11 28 11 64 -2z"/>
<path d="M2739 1065 c-36 -19 -63 -78 -55 -120 22 -113 175 -119 205 -7 14 49
-10 106 -54 126 -40 19 -62 20 -96 1z"/>
<path d="M4414 1110 c-21 -8 -54 -46 -54 -62 0 -5 43 -8 95 -8 61 0 95 4 95
11 0 6 -13 24 -29 40 -30 30 -65 36 -107 19z"/>
</g>
</svg>
